# xmcd CD database file
#
# Track frame offsets:
#	150
#	24238
#	46610
#	65475
#	77778
#	94398
#	125020
#	150338
#	168670
#	185735
#	204958
#	232918
#
# Disc length: 3446 seconds
#
# Revision: 21
# Processed by: cddbd v1.5.2PL0 Copyright (c) Steve Scherf et al.
# Submitted via: CDex 1.51
#
DISCID=930d740c
DTITLE=HY - Street Story
DYEAR=2003
DGENRE=JPop
TTITLE0=AM11:00
TTITLE1=koufukugan
TTITLE2=to-tan
TTITLE3=otokomae
TTITLE4=konntoro-ru
TTITLE5=kanabunnnohane
TTITLE6=anata
TTITLE7=33nanba-
TTITLE8=DREAMING
TTITLE9=(kumonoma-ku)
TTITLE10=saaikou
TTITLE11=Street Story
EXTD=YEAR: 2003
EXTT0=
EXTT1=
EXTT2=
EXTT3=
EXTT4=
EXTT5=
EXTT6=
EXTT7=
EXTT8=
EXTT9=
EXTT10=
EXTT11=
PLAYORDER=
